<svg id="visual" viewBox="0 0 900 600" width="900" height="600" xmlns="http://www.w3.org/2000/svg" xmlns:xlink="http://www.w3.org/1999/xlink" version="1.1"><rect x="0" y="0" width="900" height="600" fill="#001220"></rect><path d="M0 367L21.5 379.8C43 392.7 86 418.3 128.8 418.2C171.7 418 214.3 392 257.2 384.7C300 377.3 343 388.7 385.8 386.5C428.7 384.3 471.3 368.7 514.2 360.7C557 352.7 600 352.3 642.8 351.8C685.7 351.3 728.3 350.7 771.2 357.5C814 364.3 857 378.7 878.5 385.8L900 393L900 601L878.5 601C857 601 814 601 771.2 601C728.3 601 685.7 601 642.8 601C600 601 557 601 514.2 601C471.3 601 428.7 601 385.8 601C343 601 300 601 257.2 601C214.3 601 171.7 601 128.8 601C86 601 43 601 21.5 601L0 601Z" fill="#c62368"></path><path d="M0 411L21.5 416.8C43 422.7 86 434.3 128.8 435.3C171.7 436.3 214.3 426.7 257.2 431.2C300 435.7 343 454.3 385.8 457C428.7 459.7 471.3 446.3 514.2 435.2C557 424 600 415 642.8 410.2C685.7 405.3 728.3 404.7 771.2 414.7C814 424.7 857 445.3 878.5 455.7L900 466L900 601L878.5 601C857 601 814 601 771.2 601C728.3 601 685.7 601 642.8 601C600 601 557 601 514.2 601C471.3 601 428.7 601 385.8 601C343 601 300 601 257.2 601C214.3 601 171.7 601 128.8 601C86 601 43 601 21.5 601L0 601Z" fill="#d53867"></path><path d="M0 447L21.5 448C43 449 86 451 128.8 457.7C171.7 464.3 214.3 475.7 257.2 482C300 488.3 343 489.7 385.8 484.5C428.7 479.3 471.3 467.7 514.2 468.5C557 469.3 600 482.7 642.8 489.3C685.7 496 728.3 496 771.2 487.8C814 479.7 857 463.3 878.5 455.2L900 447L900 601L878.5 601C857 601 814 601 771.2 601C728.3 601 685.7 601 642.8 601C600 601 557 601 514.2 601C471.3 601 428.7 601 385.8 601C343 601 300 601 257.2 601C214.3 601 171.7 601 128.8 601C86 601 43 601 21.5 601L0 601Z" fill="#e34c67"></path><path d="M0 491L21.5 489.5C43 488 86 485 128.8 485.7C171.7 486.3 214.3 490.7 257.2 495.3C300 500 343 505 385.8 507.7C428.7 510.3 471.3 510.7 514.2 515.2C557 519.7 600 528.3 642.8 523.8C685.7 519.3 728.3 501.7 771.2 501.7C814 501.7 857 519.3 878.5 528.2L900 537L900 601L878.5 601C857 601 814 601 771.2 601C728.3 601 685.7 601 642.8 601C600 601 557 601 514.2 601C471.3 601 428.7 601 385.8 601C343 601 300 601 257.2 601C214.3 601 171.7 601 128.8 601C86 601 43 601 21.5 601L0 601Z" fill="#ef5f67"></path><path d="M0 534L21.5 535.2C43 536.3 86 538.7 128.8 544.5C171.7 550.3 214.3 559.7 257.2 560.2C300 560.7 343 552.3 385.8 548.5C428.7 544.7 471.3 545.3 514.2 544C557 542.7 600 539.3 642.8 537C685.7 534.7 728.3 533.3 771.2 536.3C814 539.3 857 546.7 878.5 550.3L900 554L900 601L878.5 601C857 601 814 601 771.2 601C728.3 601 685.7 601 642.8 601C600 601 557 601 514.2 601C471.3 601 428.7 601 385.8 601C343 601 300 601 257.2 601C214.3 601 171.7 601 128.8 601C86 601 43 601 21.5 601L0 601Z" fill="#fa7268"></path></svg>