<svg id="visual" viewBox="0 0 900 600" width="900" height="600" xmlns="http://www.w3.org/2000/svg" xmlns:xlink="http://www.w3.org/1999/xlink" version="1.1"><g stroke-width="1" stroke-linejoin="bevel"><path d="M475.9 285L496.9 229L386.1 219Z" fill="#15384f" stroke="#15384f"></path><path d="M386.1 219L404.1 331L475.9 285Z" fill="#15384f" stroke="#15384f"></path><path d="M386.1 219L338.3 236L404.1 331Z" fill="#081a28" stroke="#081a28"></path><path d="M559.7 176L521.9 167L496.9 229Z" fill="#297ea6" stroke="#297ea6"></path><path d="M496.9 229L411.1 127L386.1 219Z" fill="#1d4e6b" stroke="#1d4e6b"></path><path d="M386.1 219L306.3 166L338.3 236Z" fill="#19435d" stroke="#19435d"></path><path d="M521.9 167L411.1 127L496.9 229Z" fill="#00101c" stroke="#00101c"></path><path d="M603.7 225L559.7 176L496.9 229Z" fill="#297ea6" stroke="#297ea6"></path><path d="M521.9 167L484.9 105L411.1 127Z" fill="#246688" stroke="#246688"></path><path d="M299.3 391L416.1 373L404.1 331Z" fill="#00101c" stroke="#00101c"></path><path d="M404.1 331L488.9 383L475.9 285Z" fill="#1d4e6b" stroke="#1d4e6b"></path><path d="M475.9 285L594.7 293L496.9 229Z" fill="#277297" stroke="#277297"></path><path d="M571.7 49L484.9 105L521.9 167Z" fill="#081a28" stroke="#081a28"></path><path d="M416.1 373L488.9 383L404.1 331Z" fill="#205a7a" stroke="#205a7a"></path><path d="M411.1 127L306.3 166L386.1 219Z" fill="#15384f" stroke="#15384f"></path><path d="M220.5 272L295.3 306L338.3 236Z" fill="#0c2435" stroke="#0c2435"></path><path d="M338.3 236L295.3 306L404.1 331Z" fill="#081a28" stroke="#081a28"></path><path d="M488.9 383L594.7 293L475.9 285Z" fill="#00101c" stroke="#00101c"></path><path d="M594.7 293L603.7 225L496.9 229Z" fill="#112e42" stroke="#112e42"></path><path d="M484.9 105L387.1 62L411.1 127Z" fill="#081a28" stroke="#081a28"></path><path d="M411.1 127L311.3 66L306.3 166Z" fill="#19435d" stroke="#19435d"></path><path d="M594.7 293L636.5 255L603.7 225Z" fill="#246688" stroke="#246688"></path><path d="M603.7 225L656.5 168L559.7 176Z" fill="#081a28" stroke="#081a28"></path><path d="M311.3 66L269.5 135L306.3 166Z" fill="#246688" stroke="#246688"></path><path d="M306.3 166L234.5 193L338.3 236Z" fill="#277297" stroke="#277297"></path><path d="M494.9 470L568.7 395L488.9 383Z" fill="#297ea6" stroke="#297ea6"></path><path d="M488.9 383L568.7 395L594.7 293Z" fill="#297ea6" stroke="#297ea6"></path><path d="M594.7 293L679.5 320L636.5 255Z" fill="#081a28" stroke="#081a28"></path><path d="M227.5 354L299.3 391L295.3 306Z" fill="#081a28" stroke="#081a28"></path><path d="M295.3 306L299.3 391L404.1 331Z" fill="#297ea6" stroke="#297ea6"></path><path d="M416.1 373L494.9 470L488.9 383Z" fill="#0c2435" stroke="#0c2435"></path><path d="M269.5 135L234.5 193L306.3 166Z" fill="#19435d" stroke="#19435d"></path><path d="M387.1 62L311.3 66L411.1 127Z" fill="#112e42" stroke="#112e42"></path><path d="M234.5 193L220.5 272L338.3 236Z" fill="#081a28" stroke="#081a28"></path><path d="M636.5 255L656.5 168L603.7 225Z" fill="#112e42" stroke="#112e42"></path><path d="M559.7 176L571.7 49L521.9 167Z" fill="#1d4e6b" stroke="#1d4e6b"></path><path d="M484.9 105L430.1 0L387.1 62Z" fill="#246688" stroke="#246688"></path><path d="M637.5 103L571.7 49L559.7 176Z" fill="#297ea6" stroke="#297ea6"></path><path d="M387.1 62L324.3 0L311.3 66Z" fill="#297ea6" stroke="#297ea6"></path><path d="M299.3 391L380.1 465L416.1 373Z" fill="#277297" stroke="#277297"></path><path d="M380.1 465L494.9 470L416.1 373Z" fill="#277297" stroke="#277297"></path><path d="M505.9 0L430.1 0L484.9 105Z" fill="#00101c" stroke="#00101c"></path><path d="M227.5 354L295.3 431L299.3 391Z" fill="#277297" stroke="#277297"></path><path d="M299.3 391L295.3 431L380.1 465Z" fill="#205a7a" stroke="#205a7a"></path><path d="M656.5 168L637.5 103L559.7 176Z" fill="#277297" stroke="#277297"></path><path d="M220.5 272L227.5 354L295.3 306Z" fill="#00101c" stroke="#00101c"></path><path d="M494.9 470L596.7 432L568.7 395Z" fill="#15384f" stroke="#15384f"></path><path d="M684.5 354L679.5 320L594.7 293Z" fill="#205a7a" stroke="#205a7a"></path><path d="M636.5 255L767.4 222L656.5 168Z" fill="#297ea6" stroke="#297ea6"></path><path d="M571.7 49L505.9 0L484.9 105Z" fill="#0c2435" stroke="#0c2435"></path><path d="M684.5 354L594.7 293L568.7 395Z" fill="#19435d" stroke="#19435d"></path><path d="M430.1 0L324.3 0L387.1 62Z" fill="#1d4e6b" stroke="#1d4e6b"></path><path d="M168.6 102L176.6 153L269.5 135Z" fill="#19435d" stroke="#19435d"></path><path d="M176.6 153L169.6 214L234.5 193Z" fill="#112e42" stroke="#112e42"></path><path d="M596.7 432L684.5 354L568.7 395Z" fill="#1d4e6b" stroke="#1d4e6b"></path><path d="M176.6 153L234.5 193L269.5 135Z" fill="#205a7a" stroke="#205a7a"></path><path d="M234.5 193L169.6 214L220.5 272Z" fill="#19435d" stroke="#19435d"></path><path d="M132.6 309L183.6 381L227.5 354Z" fill="#297ea6" stroke="#297ea6"></path><path d="M643.5 0L573.7 0L571.7 49Z" fill="#15384f" stroke="#15384f"></path><path d="M571.7 49L573.7 0L505.9 0Z" fill="#00101c" stroke="#00101c"></path><path d="M215.5 48L269.5 135L311.3 66Z" fill="#1d4e6b" stroke="#1d4e6b"></path><path d="M596.7 432L624.5 449L684.5 354Z" fill="#277297" stroke="#277297"></path><path d="M555.7 519L624.5 449L596.7 432Z" fill="#081a28" stroke="#081a28"></path><path d="M347.3 529L409.1 526L380.1 465Z" fill="#081a28" stroke="#081a28"></path><path d="M380.1 465L409.1 526L494.9 470Z" fill="#277297" stroke="#277297"></path><path d="M494.9 470L555.7 519L596.7 432Z" fill="#081a28" stroke="#081a28"></path><path d="M132.6 309L227.5 354L220.5 272Z" fill="#1d4e6b" stroke="#1d4e6b"></path><path d="M227.5 354L219.5 471L295.3 431Z" fill="#246688" stroke="#246688"></path><path d="M295.3 431L347.3 529L380.1 465Z" fill="#081a28" stroke="#081a28"></path><path d="M409.1 526L486.9 529L494.9 470Z" fill="#297ea6" stroke="#297ea6"></path><path d="M215.5 0L215.5 48L311.3 66Z" fill="#15384f" stroke="#15384f"></path><path d="M486.9 529L555.7 519L494.9 470Z" fill="#0c2435" stroke="#0c2435"></path><path d="M275.5 519L347.3 529L295.3 431Z" fill="#277297" stroke="#277297"></path><path d="M409.1 526L404.1 600L486.9 529Z" fill="#00101c" stroke="#00101c"></path><path d="M59.8 170L95.8 235L169.6 214Z" fill="#277297" stroke="#277297"></path><path d="M215.5 48L168.6 102L269.5 135Z" fill="#15384f" stroke="#15384f"></path><path d="M734.4 372L679.5 320L684.5 354Z" fill="#1d4e6b" stroke="#1d4e6b"></path><path d="M734.4 372L750.4 275L679.5 320Z" fill="#0c2435" stroke="#0c2435"></path><path d="M679.5 320L750.4 275L636.5 255Z" fill="#205a7a" stroke="#205a7a"></path><path d="M656.5 168L757.4 138L637.5 103Z" fill="#297ea6" stroke="#297ea6"></path><path d="M637.5 103L643.5 0L571.7 49Z" fill="#205a7a" stroke="#205a7a"></path><path d="M748.4 59L643.5 0L637.5 103Z" fill="#1d4e6b" stroke="#1d4e6b"></path><path d="M169.6 214L132.6 309L220.5 272Z" fill="#0c2435" stroke="#0c2435"></path><path d="M95.8 235L132.6 309L169.6 214Z" fill="#15384f" stroke="#15384f"></path><path d="M180.6 460L219.5 471L183.6 381Z" fill="#297ea6" stroke="#297ea6"></path><path d="M183.6 381L219.5 471L227.5 354Z" fill="#112e42" stroke="#112e42"></path><path d="M726.4 431L684.5 354L624.5 449Z" fill="#0c2435" stroke="#0c2435"></path><path d="M726.4 431L734.4 372L684.5 354Z" fill="#112e42" stroke="#112e42"></path><path d="M219.5 471L275.5 519L295.3 431Z" fill="#081a28" stroke="#081a28"></path><path d="M807.2 222L767.4 222L750.4 275Z" fill="#246688" stroke="#246688"></path><path d="M750.4 275L767.4 222L636.5 255Z" fill="#277297" stroke="#277297"></path><path d="M324.3 0L215.5 0L311.3 66Z" fill="#081a28" stroke="#081a28"></path><path d="M215.5 48L142.6 0L168.6 102Z" fill="#246688" stroke="#246688"></path><path d="M767.4 222L757.4 138L656.5 168Z" fill="#297ea6" stroke="#297ea6"></path><path d="M92.8 387L180.6 460L183.6 381Z" fill="#297ea6" stroke="#297ea6"></path><path d="M219.5 471L187.6 537L275.5 519Z" fill="#246688" stroke="#246688"></path><path d="M59.8 170L176.6 153L168.6 102Z" fill="#277297" stroke="#277297"></path><path d="M59.8 170L169.6 214L176.6 153Z" fill="#112e42" stroke="#112e42"></path><path d="M132.6 309L92.8 387L183.6 381Z" fill="#15384f" stroke="#15384f"></path><path d="M649.5 521L726.4 431L624.5 449Z" fill="#19435d" stroke="#19435d"></path><path d="M734.4 372L786.2 309L750.4 275Z" fill="#112e42" stroke="#112e42"></path><path d="M553.7 600L649.5 521L555.7 519Z" fill="#112e42" stroke="#112e42"></path><path d="M555.7 519L649.5 521L624.5 449Z" fill="#19435d" stroke="#19435d"></path><path d="M791.2 400L786.2 309L734.4 372Z" fill="#1d4e6b" stroke="#1d4e6b"></path><path d="M767.4 222L825.2 180L757.4 138Z" fill="#19435d" stroke="#19435d"></path><path d="M794.2 67L748.4 59L757.4 138Z" fill="#297ea6" stroke="#297ea6"></path><path d="M757.4 138L748.4 59L637.5 103Z" fill="#205a7a" stroke="#205a7a"></path><path d="M339.3 600L404.1 600L347.3 529Z" fill="#112e42" stroke="#112e42"></path><path d="M347.3 529L404.1 600L409.1 526Z" fill="#112e42" stroke="#112e42"></path><path d="M486.9 529L510.9 600L555.7 519Z" fill="#19435d" stroke="#19435d"></path><path d="M339.3 600L347.3 529L275.5 519Z" fill="#19435d" stroke="#19435d"></path><path d="M404.1 600L510.9 600L486.9 529Z" fill="#0c2435" stroke="#0c2435"></path><path d="M786.2 309L807.2 222L750.4 275Z" fill="#0c2435" stroke="#0c2435"></path><path d="M268.5 600L339.3 600L275.5 519Z" fill="#297ea6" stroke="#297ea6"></path><path d="M61.8 305L92.8 387L132.6 309Z" fill="#15384f" stroke="#15384f"></path><path d="M180.6 460L187.6 537L219.5 471Z" fill="#277297" stroke="#277297"></path><path d="M510.9 600L553.7 600L555.7 519Z" fill="#277297" stroke="#277297"></path><path d="M794.2 67L736.4 0L748.4 59Z" fill="#19435d" stroke="#19435d"></path><path d="M748.4 59L736.4 0L643.5 0Z" fill="#246688" stroke="#246688"></path><path d="M215.5 0L142.6 0L215.5 48Z" fill="#112e42" stroke="#112e42"></path><path d="M95.8 235L61.8 305L132.6 309Z" fill="#0c2435" stroke="#0c2435"></path><path d="M0 251L61.8 305L95.8 235Z" fill="#081a28" stroke="#081a28"></path><path d="M802.2 448L791.2 400L726.4 431Z" fill="#205a7a" stroke="#205a7a"></path><path d="M726.4 431L791.2 400L734.4 372Z" fill="#19435d" stroke="#19435d"></path><path d="M900 295L900 250L807.2 222Z" fill="#00101c" stroke="#00101c"></path><path d="M52.8 106L59.8 170L168.6 102Z" fill="#00101c" stroke="#00101c"></path><path d="M900 250L825.2 180L807.2 222Z" fill="#1d4e6b" stroke="#1d4e6b"></path><path d="M807.2 222L825.2 180L767.4 222Z" fill="#1d4e6b" stroke="#1d4e6b"></path><path d="M107.8 521L187.6 537L180.6 460Z" fill="#1d4e6b" stroke="#1d4e6b"></path><path d="M825.2 180L794.2 67L757.4 138Z" fill="#205a7a" stroke="#205a7a"></path><path d="M187.6 537L268.5 600L275.5 519Z" fill="#19435d" stroke="#19435d"></path><path d="M649.5 521L733.4 519L726.4 431Z" fill="#1d4e6b" stroke="#1d4e6b"></path><path d="M717.4 600L733.4 519L649.5 521Z" fill="#1d4e6b" stroke="#1d4e6b"></path><path d="M95.8 0L52.8 106L168.6 102Z" fill="#112e42" stroke="#112e42"></path><path d="M59.8 170L0 251L95.8 235Z" fill="#205a7a" stroke="#205a7a"></path><path d="M733.4 519L802.2 448L726.4 431Z" fill="#081a28" stroke="#081a28"></path><path d="M900 295L807.2 222L786.2 309Z" fill="#246688" stroke="#246688"></path><path d="M142.6 0L95.8 0L168.6 102Z" fill="#19435d" stroke="#19435d"></path><path d="M92.8 387L93.8 478L180.6 460Z" fill="#1d4e6b" stroke="#1d4e6b"></path><path d="M187.6 537L194.6 600L268.5 600Z" fill="#1d4e6b" stroke="#1d4e6b"></path><path d="M0 448L93.8 478L92.8 387Z" fill="#19435d" stroke="#19435d"></path><path d="M553.7 600L664.5 600L649.5 521Z" fill="#19435d" stroke="#19435d"></path><path d="M733.4 519L815.2 493L802.2 448Z" fill="#277297" stroke="#277297"></path><path d="M93.8 478L107.8 521L180.6 460Z" fill="#0c2435" stroke="#0c2435"></path><path d="M104.8 600L194.6 600L187.6 537Z" fill="#205a7a" stroke="#205a7a"></path><path d="M0 147L0 251L59.8 170Z" fill="#205a7a" stroke="#205a7a"></path><path d="M61.8 305L0 368L92.8 387Z" fill="#277297" stroke="#277297"></path><path d="M93.8 478L0 495L107.8 521Z" fill="#1d4e6b" stroke="#1d4e6b"></path><path d="M0 251L0 277L61.8 305Z" fill="#297ea6" stroke="#297ea6"></path><path d="M0 101L0 147L52.8 106Z" fill="#081a28" stroke="#081a28"></path><path d="M52.8 106L0 147L59.8 170Z" fill="#297ea6" stroke="#297ea6"></path><path d="M810.2 600L815.2 493L733.4 519Z" fill="#0c2435" stroke="#0c2435"></path><path d="M900 295L786.2 309L900 358Z" fill="#1d4e6b" stroke="#1d4e6b"></path><path d="M664.5 600L717.4 600L649.5 521Z" fill="#1d4e6b" stroke="#1d4e6b"></path><path d="M0 277L0 368L61.8 305Z" fill="#19435d" stroke="#19435d"></path><path d="M786.2 309L791.2 400L900 358Z" fill="#112e42" stroke="#112e42"></path><path d="M825.2 180L900 157L794.2 67Z" fill="#19435d" stroke="#19435d"></path><path d="M0 0L0 101L52.8 106Z" fill="#0c2435" stroke="#0c2435"></path><path d="M900 358L791.2 400L900 434Z" fill="#19435d" stroke="#19435d"></path><path d="M900 250L900 157L825.2 180Z" fill="#0c2435" stroke="#0c2435"></path><path d="M794.2 67L846.2 0L736.4 0Z" fill="#277297" stroke="#277297"></path><path d="M900 47L846.2 0L794.2 67Z" fill="#19435d" stroke="#19435d"></path><path d="M900 434L791.2 400L802.2 448Z" fill="#297ea6" stroke="#297ea6"></path><path d="M0 368L0 448L92.8 387Z" fill="#00101c" stroke="#00101c"></path><path d="M107.8 521L104.8 600L187.6 537Z" fill="#205a7a" stroke="#205a7a"></path><path d="M0 600L104.8 600L107.8 521Z" fill="#00101c" stroke="#00101c"></path><path d="M900 157L900 47L794.2 67Z" fill="#15384f" stroke="#15384f"></path><path d="M900 544L900 434L815.2 493Z" fill="#205a7a" stroke="#205a7a"></path><path d="M815.2 493L900 434L802.2 448Z" fill="#297ea6" stroke="#297ea6"></path><path d="M95.8 0L0 0L52.8 106Z" fill="#277297" stroke="#277297"></path><path d="M0 448L0 495L93.8 478Z" fill="#0c2435" stroke="#0c2435"></path><path d="M717.4 600L810.2 600L733.4 519Z" fill="#15384f" stroke="#15384f"></path><path d="M900 47L900 0L846.2 0Z" fill="#297ea6" stroke="#297ea6"></path><path d="M810.2 600L900 544L815.2 493Z" fill="#19435d" stroke="#19435d"></path><path d="M0 495L0 600L107.8 521Z" fill="#297ea6" stroke="#297ea6"></path><path d="M810.2 600L900 600L900 544Z" fill="#277297" stroke="#277297"></path></g></svg>